<?xml version="1.0" encoding="UTF-8"?>
<svg xmlns="http://www.w3.org/2000/svg" width="957" height="141" viewBox="0 0 957 141" fill="none">
  <path fill-rule="evenodd" clip-rule="evenodd" d="M561.398 0.496084C569.488 0.496084 577.598 0.484365 585.699 0.496084C585.687 24.0547 585.727 47.6172 585.68 71.1641C577.477 63.2851 569.758 54.8867 561.227 47.3867C561.609 31.7656 561.27 16.125 561.398 0.496084ZM22.4766 7.09374C34.0469 0.746084 47.9062 -0.0039165 60.6875 2.37499C70.8359 4.27733 80.8164 9.58593 86.4961 18.4453C92.168 27.4961 93.0781 38.875 91.1289 49.1758C88.2695 63.0351 78.8164 74.1055 69.9766 84.6445C59.5078 95.9453 48.7773 106.996 38.2695 118.234C57.8086 118.254 77.3477 118.234 96.8867 118.246C96.8867 125.285 96.8867 132.324 96.8867 139.367C65.5977 139.375 34.2969 139.375 3.00781 139.367C3.02734 133.156 2.97656 126.945 3.03906 120.746C17.2773 105.625 31.4297 90.4141 45.6367 75.2656C51.0977 69.2851 56.4297 63.0937 60.6289 56.1367C63.668 51.0859 65.5273 45.125 64.7266 39.1875C64.1992 33.207 61.2461 26.8164 55.3867 24.4258C49.3477 22.0351 41.9766 22.4258 36.5586 26.1641C30.2266 30.5742 27.6758 38.5742 27.6094 45.9961C18.457 45.9961 9.3164 46.0078 0.167966 45.9961C-0.101566 30.2969 8.57812 14.5937 22.4766 7.09765V7.09374ZM225.098 139.414C224.906 93.2148 225.047 47.0039 225.027 0.796865C233.109 0.816396 241.18 0.804678 249.258 0.804678C249.258 19.9766 249.289 39.1367 249.238 58.3047C252.488 52.0742 257.379 46.5937 263.656 43.3359C271.828 39.0273 281.387 38.0039 290.477 38.8672C299.437 39.6953 308.227 43.9258 313.758 51.1367C319.977 59.0273 321.828 69.3945 321.699 79.2148C321.629 99.4062 321.848 119.594 321.59 139.785C313.52 139.695 305.449 139.785 297.387 139.734C297.387 121.887 297.379 104.035 297.387 86.1875C297.687 78.6367 295.586 70.2461 289.109 65.6758C278.379 58.3047 261.926 61.4141 254.598 72.1953C250.688 77.707 249.219 84.5859 249.27 91.2539C249.277 107.266 249.219 123.277 249.309 139.285C241.238 139.504 233.168 139.254 225.098 139.414ZM124.867 51.4453C135.906 41.0859 151.789 37.3867 166.559 38.8437C180.129 39.9062 193.637 45.8945 202.129 56.7773C197.27 61.5469 192.316 66.2148 187.418 70.9375C180.969 64.1953 171.828 60.2539 162.52 60.0859C154.609 59.7148 146.398 62.6758 141.219 68.7851C134.758 76.2461 133.137 86.8359 134.777 96.3164C136.078 104.047 140.398 111.504 147.289 115.496C154.477 119.836 163.398 119.844 171.367 118.027C177.949 116.504 183.918 112.687 188.059 107.348C193.066 111.527 198.109 115.676 203.086 119.887C196.187 130.145 184.758 136.746 172.699 138.875C157.227 141.797 140.02 139.504 127.457 129.457C115.609 120.234 109.547 105.066 109.566 90.2773C109.238 76.0156 114.18 61.2148 124.867 51.4453ZM355.086 51.8164C365.406 42.2851 379.93 38.5156 393.727 39.2656C406.328 39.5469 419.547 44.0351 427.547 54.2266C437.297 66.4766 438.93 82.9961 438.078 98.1055C413.508 98.1562 388.949 98.0937 364.387 98.1367C366.34 106.836 372.109 114.875 380.496 118.336C393.68 123.777 409.797 119.805 419.566 109.586C423.938 114.156 428.258 118.777 432.656 123.316C422.93 134.375 408.207 140.176 393.668 140.617C379.379 141.305 364.297 137.207 353.887 127.027C343.77 117.355 339.168 103.047 339.477 89.2656C339.508 75.4141 344.629 61.1875 355.086 51.8164ZM376.18 61.7266C369.227 66.0156 365.277 73.8437 364.066 81.7344C381.387 81.7461 398.707 81.7539 416.039 81.7344C415.687 73.8945 412.117 65.8437 405.207 61.6953C396.52 56.5273 384.84 56.457 376.18 61.7266ZM466.098 50.5664C478.387 39.7148 495.926 36.7969 511.727 39.4844C523.566 41.3047 534.758 47.3047 542.367 56.625C537.668 61.5859 532.559 66.1445 527.656 70.9258C521.996 65.3359 514.648 61.3437 506.699 60.4062C498.68 59.2266 489.937 60.9258 483.789 66.4453C476.309 73.0039 473.648 83.5859 474.609 93.2148C475.309 101.785 479.418 110.437 486.867 115.094C494.18 119.824 503.488 119.937 511.719 117.996C518.27 116.465 524.188 112.645 528.316 107.348C533.309 111.535 538.359 115.676 543.336 119.875C536.289 130.395 524.496 137.016 512.137 139.035C496.637 141.766 479.449 139.234 467.078 128.945C455.617 119.687 449.816 104.797 449.809 90.2773C449.457 75.5976 454.758 60.2969 466.098 50.5664ZM561.336 81.3867C569.43 89.1875 577.387 97.1367 585.027 105.395C585.539 105.285 586.566 105.086 587.078 104.984C591.738 99.0039 597.668 94.1367 602.867 88.625C620.086 105.715 637.199 122.914 654.359 140.074C642.918 140.016 631.469 140.117 620.027 140.027C610.227 130.105 600.258 120.367 590.457 110.465C589.039 108.957 587.137 107.766 586.508 105.687C585.828 106.707 585.168 107.887 585.617 109.187C585.797 119.477 585.656 129.766 585.699 140.055C577.59 140.066 569.488 140.066 561.387 140.055C561.348 120.504 561.449 100.945 561.336 81.3867Z" fill="#3474FF"></path>
  <path fill-rule="evenodd" clip-rule="evenodd" d="M902.328 16.1875C910.309 16.1875 918.277 16.164 926.258 16.1953C926.27 25.3555 926.258 34.5156 926.27 43.6758C935.707 43.6758 945.156 43.6953 954.609 43.664C954.668 49.5469 954.629 55.4258 954.637 61.3047C945.18 61.3164 935.719 61.3047 926.27 61.3047C926.277 76.6055 926.219 91.9062 926.297 107.195C926.316 111.355 927.398 116.484 931.68 118.277C938.148 120.727 944.906 117.656 950.797 115.016C952.887 121.094 954.859 127.215 956.898 133.316C947.648 139.094 936.359 141.914 925.52 140.137C918.918 139.086 912.477 135.836 908.398 130.426C904.246 125.004 902.668 118.027 902.648 111.305C902.629 94.6367 902.648 77.9765 902.637 61.3047C897.949 61.3047 893.27 61.3164 888.598 61.3047C888.449 55.4375 888.387 49.5664 888.246 43.707C892.93 43.664 897.617 43.6758 902.309 43.6953C902.359 34.5273 902.309 25.3555 902.328 16.1836V16.1875ZM618.289 38.8242C629.68 38.1953 641.246 38.7344 652.707 38.5547C636.129 55.2851 619.438 71.8945 602.867 88.625C597.668 94.1367 591.738 99.0039 587.078 104.984C586.566 105.086 585.539 105.285 585.027 105.395C577.387 97.1367 569.43 89.1875 561.336 81.3867C560.777 70.1953 561.047 58.6875 561.227 47.3867C569.758 54.8867 577.477 63.2851 585.68 71.164C596.547 60.3945 607.359 49.5469 618.289 38.8242ZM695.137 39.8945C709.996 37.3867 726.227 39.3555 738.879 47.9961C748.879 54.707 755.68 65.625 757.977 77.3867C760.977 92.457 758.52 109.207 748.906 121.527C740.789 132.145 727.938 138.414 714.797 139.887C700.066 141.594 684.199 138.785 672.316 129.484C662.297 121.797 656.156 109.746 654.699 97.3047C652.996 83.8437 655.547 69.4062 663.816 58.3945C671.219 48.3164 682.93 41.9765 695.137 39.8945ZM702.117 59.914C694.809 61.1172 687.93 65.2773 683.906 71.5664C676.727 82.9062 677.059 98.8359 685.039 109.695C694.527 122.535 715.598 123.676 726.656 112.285C737.656 100.836 738.047 80.9648 728.109 68.7461C721.93 61.2773 711.52 58.1445 702.117 59.914ZM773.469 39.4844C781.566 39.4961 789.656 39.4844 797.758 39.4961C797.777 58.0859 797.738 76.6758 797.777 95.2773C797.789 101.734 799.836 108.664 805.066 112.836C811.617 117.977 820.996 118.375 828.547 115.348C839.539 111.004 844.52 98.4375 843.949 87.2969C843.949 71.3555 843.949 55.4258 843.949 39.4961C852.156 39.4844 860.359 39.4961 868.566 39.4844C868.586 72.7851 868.578 106.074 868.578 139.367C860.469 139.375 852.367 139.375 844.27 139.367C844.27 133.246 844.227 127.117 844.297 120.996C840.816 127.215 835.828 132.734 829.418 135.977C820.949 140.316 811.008 141.117 801.707 139.695C792.77 138.277 784.328 133.187 779.539 125.406C774.977 118.277 773.457 109.645 773.457 101.305C773.449 80.6953 773.43 60.0937 773.469 39.4844Z" fill="#11CA79"></path>
</svg>
