<?xml version="1.0" encoding="UTF-8"?>
<svg xmlns="http://www.w3.org/2000/svg" width="24" height="24" viewBox="0 0 24 24" fill="none">
  <path fill-rule="evenodd" clip-rule="evenodd" d="M11.1381 1.75175C10.9697 1.7719 10.6088 1.79728 10.3361 1.80848C10.0635 1.81953 9.77488 1.8464 9.69474 1.86835C9.61442 1.89015 9.42208 1.91582 9.26711 1.92553C9.11214 1.93508 8.94165 1.96076 8.88808 1.98255C8.83451 2.00435 8.70045 2.03092 8.59014 2.04167C8.47977 2.05242 8.35511 2.07855 8.31316 2.09975C8.27106 2.12095 8.16044 2.14677 8.06727 2.15738C7.97412 2.16783 7.86917 2.19425 7.83409 2.21619C7.799 2.23814 7.70778 2.26382 7.63149 2.27352C7.55521 2.28323 7.46324 2.3095 7.42742 2.3319C7.39143 2.35429 7.30529 2.38116 7.23602 2.39146C7.16675 2.40161 7.08135 2.42819 7.04642 2.45043C7.01149 2.47253 6.92788 2.4994 6.8607 2.5103C6.79337 2.52105 6.7229 2.54867 6.70394 2.57136C6.68514 2.5942 6.63871 2.61286 6.60109 2.61286C6.56331 2.61286 6.46986 2.64093 6.39327 2.67542C6.31668 2.70975 6.18172 2.76992 6.09364 2.80918C6.00541 2.84829 5.91344 2.89249 5.88941 2.90727C5.86538 2.9219 5.82611 2.9425 5.80192 2.95295C5.66473 3.01237 5.06427 3.37858 4.91259 3.49533C4.20914 4.03695 3.87472 4.40391 3.3522 5.208C3.28083 5.31773 3.06108 5.7665 3.06108 5.80233C3.06108 5.82428 3.04227 5.85801 3.01928 5.87713C2.99614 5.89623 2.96867 5.95356 2.95807 6.00462C2.94747 6.05553 2.92209 6.12375 2.90163 6.156C2.88134 6.1884 2.85073 6.27364 2.83386 6.3456C2.81684 6.41757 2.78295 6.52879 2.75832 6.59298C2.73383 6.65718 2.71323 6.74929 2.71249 6.79796C2.71173 6.84648 2.69248 6.91276 2.66978 6.94531C2.64694 6.97785 2.61918 7.10206 2.60783 7.2215C2.59648 7.34093 2.57021 7.48052 2.5493 7.53188C2.52841 7.58308 2.50198 7.73402 2.49049 7.86718C2.47899 8.00035 2.45271 8.1574 2.43212 8.21623C2.41151 8.2752 2.38583 8.4654 2.37508 8.63898C2.36433 8.81281 2.33762 9.02718 2.31566 9.11572C2.20011 9.58124 2.19922 12.8113 2.31447 13.1984C2.33582 13.27 2.3627 13.451 2.37419 13.6005C2.38568 13.7499 2.41226 13.9139 2.43301 13.9648C2.45391 14.0159 2.48034 14.1486 2.49198 14.2599C2.50347 14.371 2.52975 14.4892 2.55035 14.5223C2.57096 14.5553 2.59664 14.6536 2.60738 14.7406C2.61828 14.8276 2.64112 14.9249 2.65829 14.9572C2.6756 14.9893 2.70651 15.0887 2.72696 15.1781C2.77235 15.3751 2.84804 15.6062 2.8997 15.705C2.92059 15.7451 2.94657 15.8197 2.95747 15.8707C2.96837 15.9218 2.9948 15.9779 3.01614 15.9957C3.03749 16.0134 3.06332 16.072 3.07332 16.126C3.08348 16.1799 3.11035 16.2394 3.13289 16.2581C3.15543 16.2769 3.18216 16.3298 3.19231 16.3758C3.20231 16.4216 3.22948 16.4747 3.25247 16.4938C3.27546 16.513 3.29472 16.5434 3.29517 16.5615C3.29636 16.6073 3.60584 17.0807 3.70408 17.187C3.72886 17.2139 3.76976 17.2687 3.79484 17.3088C4.02371 17.6751 5.01934 18.4637 5.51036 18.668C5.53439 18.678 5.60666 18.7101 5.6707 18.7394C5.73489 18.7684 5.82671 18.8014 5.87493 18.8127C5.923 18.8237 5.98197 18.8497 6.00615 18.8701C6.0302 18.8908 6.1023 18.9171 6.1665 18.929C6.23054 18.9407 6.30981 18.9678 6.34236 18.989C6.3749 19.0101 6.47986 19.0311 6.57555 19.0355L6.74963 19.0437L6.76426 18.1922C6.77859 17.3547 6.79277 17.2397 6.87608 17.2912C6.8922 17.3013 6.91399 17.3978 6.9243 17.5059C6.93475 17.614 6.96222 17.7612 6.98551 17.833C7.09703 18.1785 7.09688 20.7493 6.98536 21.2529C6.96312 21.3528 6.93654 21.5921 6.92624 21.7846C6.91579 21.9771 6.88907 22.214 6.86667 22.3112C6.81815 22.5217 6.80248 22.8697 6.8398 22.907C6.85578 22.9229 6.94177 22.888 7.05583 22.819C7.16003 22.7562 7.27185 22.6926 7.3044 22.6779C7.46772 22.6041 8.78437 21.6615 8.87822 21.5514C8.89417 21.5325 9.00577 21.4377 9.12602 21.3406C9.37194 21.1422 10.0541 20.4545 10.2908 20.1663C10.3765 20.062 10.4548 19.9702 10.4647 19.9622C10.4874 19.944 10.6108 19.7921 10.6794 19.6979C10.708 19.6588 10.8162 19.5133 10.9201 19.3743C11.0238 19.2354 11.1088 19.1075 11.1088 19.09C11.1088 19.0726 11.1197 19.0582 11.1331 19.0582C11.1591 19.0582 11.3214 18.8143 11.3513 18.7302C11.3613 18.7022 11.3829 18.6792 11.3994 18.6792C11.4161 18.6792 11.4296 18.6641 11.4296 18.6458C11.4296 18.6002 11.6307 18.3001 11.6614 18.3001C11.7329 18.3001 11.722 18.4915 11.6439 18.6056C11.6222 18.6371 11.6046 18.6814 11.6046 18.7038C11.6046 18.7564 11.3678 19.249 11.2202 19.5033C11.1573 19.6118 11.1149 19.7152 11.1261 19.7333C11.1527 19.7762 12.9077 19.7434 13.6893 19.6856C13.994 19.6629 14.4468 19.636 14.6954 19.6256C14.944 19.6152 15.2522 19.5892 15.3806 19.5679C15.5089 19.5466 15.7056 19.5206 15.8179 19.5101C15.9302 19.4998 16.0877 19.4737 16.1679 19.4522C16.248 19.4308 16.3858 19.4042 16.4741 19.393C16.5623 19.3817 16.6765 19.3552 16.728 19.334C16.7795 19.3128 16.8845 19.2861 16.9613 19.2747C17.0381 19.2632 17.1272 19.2371 17.1593 19.2165C17.1912 19.1961 17.2701 19.1698 17.3341 19.1584C17.3983 19.147 17.4767 19.1196 17.5084 19.0979C17.54 19.0761 17.5859 19.0581 17.6105 19.058C17.635 19.0578 17.7205 19.0256 17.8007 18.986C17.881 18.9466 17.9679 18.9139 17.9939 18.9135C18.0201 18.9129 18.0567 18.894 18.0754 18.8716C18.094 18.8491 18.1448 18.8219 18.1882 18.811C18.2316 18.8001 18.2869 18.7742 18.3109 18.7533C18.3351 18.7323 18.3875 18.7054 18.4277 18.6932C18.4677 18.6811 18.5319 18.6468 18.5701 18.6169C18.6083 18.5871 18.6504 18.5625 18.6637 18.5625C18.8147 18.5625 19.7122 17.7884 20.0328 17.3817C20.3339 16.9998 20.9061 15.9202 20.9061 15.7342C20.9061 15.706 20.9252 15.6672 20.9484 15.648C20.9717 15.6286 20.9993 15.5553 21.01 15.485C21.0204 15.4146 21.0467 15.3424 21.0682 15.3246C21.0897 15.3067 21.116 15.2308 21.1265 15.1559C21.137 15.0811 21.1629 14.9925 21.1837 14.9591C21.2046 14.9257 21.2312 14.8339 21.2427 14.7549C21.2542 14.6761 21.2802 14.5787 21.3005 14.5387C21.3208 14.4986 21.3469 14.3871 21.3586 14.2907C21.3702 14.1946 21.3971 14.0733 21.4184 14.0213C21.4397 13.9692 21.4662 13.8117 21.4774 13.6714C21.4886 13.531 21.5147 13.3678 21.5353 13.3087C21.556 13.2496 21.5814 12.9937 21.5919 12.7401C21.6023 12.4864 21.6295 12.1306 21.6522 11.9494C21.7084 11.5006 21.7082 10.0882 21.6519 9.68752C21.6293 9.52509 21.6023 9.21515 21.5922 8.99855C21.5822 8.78204 21.556 8.53929 21.5337 8.45913C21.5116 8.37896 21.4846 8.19533 21.4737 8.05096C21.4628 7.90659 21.4374 7.75566 21.4172 7.71566C21.3971 7.67549 21.3717 7.55247 21.3608 7.44215C21.3499 7.33183 21.3238 7.20717 21.3026 7.16506C21.2813 7.12311 21.2554 7.01219 21.245 6.91858C21.2344 6.82498 21.2081 6.71346 21.1863 6.67061C21.1646 6.62792 21.1376 6.52849 21.1261 6.44966C21.1146 6.37083 21.0881 6.27887 21.0673 6.24558C21.0464 6.21213 21.0201 6.13301 21.0091 6.06971C20.9979 6.00627 20.9701 5.92789 20.9474 5.89549C20.9247 5.86309 20.9061 5.8189 20.9061 5.79741C20.9061 5.74904 20.6789 5.25189 20.5768 5.07677C20.4985 4.94256 20.2725 4.59904 20.1644 4.4499C19.9945 4.21566 19.4322 3.66417 19.2295 3.5328C19.1333 3.47039 19.0415 3.40396 19.0254 3.38515C19.0093 3.36619 18.9569 3.32871 18.9087 3.3017C18.8606 3.27467 18.7819 3.22675 18.7337 3.1951C18.6857 3.16345 18.607 3.11747 18.5589 3.09284C18.5107 3.06835 18.3992 3.00326 18.3109 2.94832C18.2229 2.89338 18.1309 2.84785 18.1068 2.8471C18.0828 2.84636 18.0239 2.81963 17.9756 2.78783C17.9275 2.75589 17.8662 2.72976 17.8393 2.72976C17.8123 2.72961 17.7731 2.71229 17.7518 2.69139C17.7141 2.65407 17.5367 2.5839 17.305 2.51478C17.2408 2.49567 17.1622 2.46551 17.13 2.4479C17.098 2.43013 17.0004 2.40072 16.9134 2.38221C16.8263 2.36385 16.739 2.33563 16.7196 2.31951C16.7003 2.30323 16.6141 2.28248 16.5281 2.27307C16.4423 2.26367 16.3442 2.23874 16.3103 2.21769C16.2764 2.19649 16.1649 2.17006 16.0625 2.15887C15.96 2.14767 15.8412 2.12079 15.7984 2.09915C15.7555 2.07735 15.6243 2.05123 15.5068 2.04078C15.3893 2.03048 15.2487 2.00405 15.1944 1.98195C15.1403 1.96001 14.9828 1.93449 14.8445 1.92537C14.7063 1.91627 14.5076 1.89059 14.4028 1.86819C14.2944 1.84521 13.936 1.82013 13.5717 1.81027C13.2195 1.80057 12.6905 1.77384 12.3963 1.75085C11.7715 1.70188 11.5549 1.70204 11.1381 1.75175ZM13.3978 5.79517C13.494 5.81114 13.7053 5.84159 13.8672 5.86264C14.0292 5.88385 14.1868 5.91445 14.2172 5.93073C14.2476 5.94685 14.3513 5.96968 14.4476 5.98148C14.5437 5.99313 14.6557 6.01955 14.6963 6.04016C14.7371 6.06091 14.8223 6.08733 14.8859 6.09912C14.9495 6.11077 15.0473 6.14481 15.1031 6.17451C15.1591 6.20422 15.2197 6.22856 15.2381 6.22856C15.3393 6.22856 15.8739 6.51938 16.1095 6.70256C16.1897 6.76497 16.3001 6.85095 16.3549 6.8938C16.4097 6.93665 16.5185 7.05041 16.5968 7.14685C16.6751 7.24315 16.7639 7.35153 16.7941 7.38781C16.8243 7.42394 16.8828 7.52486 16.924 7.61205C16.9652 7.69923 17.0121 7.77866 17.028 7.78851C17.0441 7.79836 17.0572 7.82896 17.0572 7.85629C17.0572 7.88361 17.0815 7.95168 17.1113 8.00767C17.1409 8.0635 17.1747 8.16174 17.1863 8.22593C17.1978 8.28998 17.2241 8.3688 17.2445 8.4009C17.265 8.43285 17.2908 8.54109 17.3021 8.64129C17.3134 8.74141 17.3402 8.86612 17.3617 8.91824C17.4396 9.10629 17.4525 9.57104 17.3808 9.60944C17.3367 9.63301 16.9769 9.64004 16.1281 9.63404C14.8683 9.62495 14.8411 9.62195 14.8411 9.48952C14.8411 9.26847 14.4332 8.74175 14.1558 8.60469C14.0918 8.57307 14.0195 8.53332 13.9955 8.51631C13.9217 8.46435 13.6377 8.36119 13.5145 8.34164C13.4503 8.33148 13.3322 8.30117 13.2521 8.27445C13.0553 8.20891 11.4245 8.2019 11.2434 8.26594C11.1812 8.28789 11.0566 8.32282 10.9664 8.34357C10.3308 8.49003 9.70425 8.97627 9.60337 9.40149C9.593 9.44444 9.56814 9.49938 9.54765 9.52347C9.52717 9.54747 9.50171 9.64587 9.49091 9.74212C9.48019 9.83829 9.45028 9.98264 9.42448 10.0628C9.3548 10.2799 9.35317 11.5507 9.42225 11.7395C9.44882 11.8116 9.47805 11.9231 9.48748 11.9873C9.56994 12.5512 10.1438 13.1548 10.6569 13.2171C10.737 13.2268 10.8358 13.2514 10.8762 13.2717C10.9165 13.292 11.0741 13.3174 11.226 13.328C11.3781 13.3387 11.6353 13.3662 11.7977 13.389C12.1752 13.4422 12.7577 13.4423 13.052 13.3894C13.178 13.3666 13.3649 13.3396 13.4673 13.3292C13.5697 13.3187 13.6812 13.2929 13.7152 13.2717C13.749 13.2505 13.8261 13.2245 13.8863 13.2139C13.9464 13.2034 13.9955 13.1833 13.9955 13.1692C13.9955 13.1551 14.0407 13.1287 14.0958 13.1104C14.3609 13.023 14.7521 12.5279 14.8436 12.1642C14.9038 11.9257 14.8244 11.9384 16.2307 11.9424C17.6177 11.9463 17.5547 11.9356 17.4875 12.1546C17.4615 12.2391 17.4311 12.4132 17.4201 12.5414C17.4089 12.6696 17.3831 12.8075 17.3625 12.8479C17.342 12.8882 17.3154 12.9866 17.3035 13.0666C17.2917 13.1466 17.2649 13.2382 17.2439 13.2704C17.223 13.3024 17.1971 13.3841 17.1862 13.452C17.1755 13.5198 17.1485 13.5903 17.1264 13.6086C17.1043 13.627 17.0863 13.6555 17.0863 13.672C17.0863 13.7046 16.9558 14.0013 16.9103 14.0722C16.8947 14.0962 16.8702 14.143 16.8557 14.1761C16.8413 14.2092 16.7951 14.2881 16.7532 14.3511C16.7112 14.4142 16.661 14.4908 16.6411 14.5216C16.56 14.6473 16.2119 14.9702 16.0216 15.0962C15.7344 15.2862 15.3651 15.4718 15.2742 15.4718C15.2509 15.4718 15.2189 15.4846 15.2031 15.5005C15.1692 15.5344 14.7791 15.6416 14.5495 15.6801C14.4613 15.6948 14.2711 15.7295 14.1268 15.7571C13.7899 15.8213 11.2047 15.8306 10.861 15.7688C10.7487 15.7486 10.4994 15.7137 10.3069 15.6911C9.70442 15.6207 8.97259 15.4792 8.78239 15.3967C8.72985 15.3739 8.67071 15.3548 8.65134 15.3542C8.37452 15.3472 7.2599 14.4179 7.2599 14.1943C7.2599 14.1796 7.23453 14.1352 7.20332 14.0956C7.17227 14.0562 7.13823 13.9894 7.12764 13.9471C7.11704 13.905 7.09001 13.8551 7.06747 13.8364C7.04508 13.8178 7.02671 13.7811 7.02656 13.7547C7.02656 13.7284 7.00208 13.6611 6.97208 13.6051C6.94207 13.549 6.90773 13.4443 6.89578 13.3722C6.8837 13.3 6.85757 13.2084 6.83741 13.1682C6.81726 13.1283 6.79158 13.019 6.78008 12.9256C6.76874 12.8322 6.74216 12.7141 6.72111 12.6632C6.69992 12.6123 6.67364 12.4392 6.6626 12.2789C6.65155 12.1186 6.62392 11.8692 6.60138 11.7249C6.55645 11.4372 6.55047 10.8048 6.59034 10.5293C6.60422 10.4332 6.63034 10.1511 6.64856 9.90249C6.66662 9.65392 6.69932 9.39147 6.72111 9.31938C6.74306 9.24712 6.76964 9.09627 6.78038 8.98407C6.79113 8.87178 6.8171 8.74055 6.83816 8.69247C6.85936 8.64421 6.88578 8.54601 6.89713 8.4739C6.90833 8.4018 6.94207 8.297 6.97208 8.24101C7.00208 8.18503 7.02672 8.11486 7.02672 8.08515C7.02672 8.05529 7.05284 7.99767 7.08494 7.95676C7.11704 7.91601 7.14331 7.86032 7.14331 7.83285C7.14331 7.80537 7.16959 7.75924 7.20153 7.73013C7.23363 7.70117 7.2599 7.66698 7.2599 7.65429C7.2599 7.50276 8.18432 6.5785 8.3357 6.5785C8.34839 6.5785 8.38198 6.55297 8.4102 6.52177C8.43842 6.49057 8.49948 6.45668 8.54591 6.44653C8.59237 6.43637 8.63042 6.41697 8.63042 6.40338C8.63042 6.38994 8.67954 6.36277 8.73971 6.34322C8.79988 6.32366 8.87497 6.28992 8.9066 6.26812C8.93822 6.24633 8.99094 6.22856 9.02368 6.22856C9.05634 6.22856 9.12885 6.20422 9.18491 6.17467C9.24071 6.14496 9.34314 6.11196 9.4124 6.10107C9.48165 6.09032 9.56694 6.06345 9.60199 6.04165C9.63697 6.01985 9.73365 5.99357 9.81679 5.98327C9.90011 5.97297 10.0116 5.94669 10.0647 5.92475C10.1178 5.90295 10.2728 5.87548 10.4091 5.86369C10.5454 5.85189 10.6897 5.82921 10.7297 5.81338C10.9193 5.73829 12.9709 5.72425 13.3978 5.79517ZM11.7941 18.1541C11.816 18.2235 11.7917 18.271 11.7341 18.271C11.6898 18.271 11.68 18.2193 11.7097 18.1422C11.7341 18.0789 11.7718 18.0843 11.7941 18.1541Z" stroke="white" stroke-width="1.28571"></path>
</svg>
