<svg width="20" height="20" viewBox="0 0 20 20" fill="none" xmlns="http://www.w3.org/2000/svg">
<path d="M11.584 5.84376H8.41732C7.65732 5.84376 6.24023 5.84376 6.24023 3.66668C6.24023 1.48959 7.65732 1.48959 8.41732 1.48959H11.584C12.344 1.48959 13.7611 1.48959 13.7611 3.66668C13.7611 4.42668 13.7611 5.84376 11.584 5.84376ZM8.41732 2.67709C7.63357 2.67709 7.42773 2.67709 7.42773 3.66668C7.42773 4.65626 7.63357 4.65626 8.41732 4.65626H11.584C12.5736 4.65626 12.5736 4.45043 12.5736 3.66668C12.5736 2.67709 12.3677 2.67709 11.584 2.67709H8.41732Z" fill="white"/>
<path d="M11.5833 18.5104H7.625C3.17583 18.5104 2.28125 16.4679 2.28125 13.1667V8.41667C2.28125 4.80667 3.5875 3.26292 6.80167 3.09667C7.11833 3.08084 7.41125 3.32626 7.42708 3.65876C7.44292 3.99126 7.18958 4.26042 6.865 4.27626C4.61667 4.40292 3.46875 5.07584 3.46875 8.41667V13.1667C3.46875 16.0958 4.04667 17.3229 7.625 17.3229H11.5833C11.9079 17.3229 12.1771 17.5921 12.1771 17.9167C12.1771 18.2413 11.9079 18.5104 11.5833 18.5104Z" fill="white"/>
<path d="M17.1251 12.9687C16.8005 12.9687 16.5313 12.6996 16.5313 12.375V8.41666C16.5313 5.07583 15.3834 4.40291 13.1351 4.27625C12.8105 4.26041 12.5571 3.97541 12.573 3.65083C12.5888 3.32625 12.8817 3.07291 13.1984 3.08875C16.4126 3.26291 17.7188 4.80666 17.7188 8.40875V12.3671C17.7188 12.6996 17.4496 12.9687 17.1251 12.9687Z" fill="white"/>
<path d="M17.125 18.5104H14.75C14.4254 18.5104 14.1562 18.2412 14.1562 17.9167C14.1562 17.5921 14.4254 17.3229 14.75 17.3229H16.5312V15.5417C16.5312 15.2171 16.8004 14.9479 17.125 14.9479C17.4496 14.9479 17.7188 15.2171 17.7188 15.5417V17.9167C17.7188 18.2412 17.4496 18.5104 17.125 18.5104Z" fill="white"/>
<path d="M17.0933 18.4787C16.9429 18.4787 16.7925 18.4233 16.6737 18.3046L11.9554 13.5862C11.7258 13.3567 11.7258 12.9767 11.9554 12.7471C12.185 12.5175 12.565 12.5175 12.7946 12.7471L17.5129 17.4654C17.7425 17.695 17.7425 18.075 17.5129 18.3046C17.3941 18.4154 17.2437 18.4787 17.0933 18.4787Z" fill="white"/>
</svg>
