<svg width="20" height="19" viewBox="0 0 20 19" fill="none" xmlns="http://www.w3.org/2000/svg">
<path d="M11.584 5.34375H8.41732C7.65732 5.34375 6.24023 5.34375 6.24023 3.16667C6.24023 0.989584 7.65732 0.989584 8.41732 0.989584H11.584C12.344 0.989584 13.7611 0.989584 13.7611 3.16667C13.7611 3.92667 13.7611 5.34375 11.584 5.34375ZM8.41732 2.17708C7.63357 2.17708 7.42773 2.17708 7.42773 3.16667C7.42773 4.15625 7.63357 4.15625 8.41732 4.15625H11.584C12.5736 4.15625 12.5736 3.95042 12.5736 3.16667C12.5736 2.17708 12.3677 2.17708 11.584 2.17708H8.41732Z" fill="white"/>
<path d="M11.5833 18.0104H7.625C3.17583 18.0104 2.28125 15.9679 2.28125 12.6667V7.91667C2.28125 4.30667 3.5875 2.76292 6.80167 2.59667C7.11042 2.58083 7.41125 2.82625 7.42708 3.15875C7.44292 3.49125 7.18958 3.76042 6.865 3.77625C4.61667 3.90292 3.46875 4.57583 3.46875 7.91667V12.6667C3.46875 15.5958 4.04667 16.8229 7.625 16.8229H11.5833C11.9079 16.8229 12.1771 17.0921 12.1771 17.4167C12.1771 17.7412 11.9079 18.0104 11.5833 18.0104Z" fill="white"/>
<path d="M17.1251 12.4688C16.8005 12.4688 16.5313 12.1996 16.5313 11.875V7.91667C16.5313 4.57583 15.3834 3.90292 13.1351 3.77625C12.8105 3.76042 12.5571 3.47542 12.573 3.15083C12.5888 2.82625 12.8738 2.57292 13.1984 2.58875C16.4126 2.76292 17.7188 4.30667 17.7188 7.90875V11.8671C17.7188 12.1996 17.4496 12.4688 17.1251 12.4688Z" fill="white"/>
<path d="M12.375 15.6354C12.0504 15.6354 11.7812 15.3663 11.7812 15.0417V12.6667C11.7812 12.3421 12.0504 12.0729 12.375 12.0729H14.75C15.0746 12.0729 15.3438 12.3421 15.3438 12.6667C15.3438 12.9913 15.0746 13.2604 14.75 13.2604H12.9688V15.0417C12.9688 15.3663 12.6996 15.6354 12.375 15.6354Z" fill="white"/>
<path d="M17.1246 18.0104C16.9741 18.0104 16.8237 17.955 16.705 17.8363L11.9866 13.1179C11.7571 12.8883 11.7571 12.5083 11.9866 12.2788C12.2162 12.0492 12.5962 12.0492 12.8258 12.2788L17.5441 16.9971C17.7737 17.2267 17.7737 17.6067 17.5441 17.8363C17.4254 17.955 17.275 18.0104 17.1246 18.0104Z" fill="white"/>
</svg>
