<?xml version="1.0" encoding="UTF-8"?>
<svg xmlns="http://www.w3.org/2000/svg" id="logo" viewBox="0 0 79 66">
  <path d="M13.2677,58.8686 C13.2677,57.6106 12.4527,56.7236 11.3027,56.7236 C10.1527,56.7236 9.2777,57.6106 9.2777,58.8686 C9.2777,60.1396 10.1527,61.0136 11.3027,61.0136 C12.4407,61.0136 13.2677,60.1396 13.2677,58.8686 M14.6337,58.8686 C14.6337,60.8826 13.3517,62.3066 11.5897,62.3066 C10.5597,62.3066 9.7687,61.8046 9.2897,61.0616 L9.2897,65.1586 L7.9357,65.1586 L7.9357,55.5746 L9.2897,55.5746 L9.2897,56.7006 C9.7687,55.9456 10.5597,55.4306 11.6017,55.4306 C13.3277,55.4306 14.6337,56.8556 14.6337,58.8686" id="Fill-1" fill="#6496DC"></path>
  <path d="M20.839,58.8686 C20.839,57.6106 19.964,56.7236 18.815,56.7236 C17.664,56.7236 16.85,57.6106 16.85,58.8686 C16.85,60.1396 17.676,61.0136 18.815,61.0136 C19.964,61.0136 20.839,60.1396 20.839,58.8686 Z M22.181,55.5746 L22.181,62.1636 L20.827,62.1636 L20.827,61.0616 C20.348,61.8156 19.557,62.3066 18.527,62.3066 C16.766,62.3066 15.484,60.8826 15.484,58.8686 C15.484,56.8556 16.79,55.4306 18.515,55.4306 C19.557,55.4306 20.348,55.9456 20.827,56.7006 L20.827,55.5746 L22.181,55.5746 Z" id="Fill-3" fill="#6496DC"></path>
  <polygon id="Fill-5" fill="#6496DC" points="29.6329 55.5746 25.2719 65.1586 23.8219 65.1586 25.5589 61.3246 22.9599 55.5746 24.4089 55.5746 26.2779 59.8636 28.1829 55.5746"></polygon>
  <path d="M40.3077,57.934 L40.3077,62.163 L38.9537,62.163 L38.9537,58.222 C38.9537,57.24 38.5587,56.724 37.6477,56.724 C36.5817,56.724 36.0307,57.551 36.0307,58.749 L36.0427,62.163 L34.6767,62.163 L34.6767,58.222 C34.6767,57.24 34.2817,56.724 33.3707,56.724 C32.3047,56.724 31.7657,57.551 31.7657,58.749 L31.7657,62.163 L30.4117,62.163 L30.4117,55.575 L31.7657,55.575 L31.7657,56.628 C32.2207,55.873 32.8677,55.43 33.8137,55.43 C34.8207,55.43 35.5277,55.921 35.8507,56.808 C36.2937,55.957 37.0367,55.43 38.0787,55.43 C39.4687,55.43 40.3077,56.365 40.3077,57.934" id="Fill-7" fill="#6496DC"></path>
  <path d="M42.7633,58.1381 L46.5973,58.1381 C46.3933,57.2401 45.7103,56.6051 44.7163,56.6051 C43.6863,56.6051 42.9913,57.2511 42.7633,58.1381 M48.0473,59.2411 L42.6913,59.2411 C42.7993,60.4511 43.6503,61.1211 44.7523,61.1211 C45.5433,61.1211 46.2013,60.7851 46.5133,60.1391 L47.9153,60.1391 C47.4003,61.6131 46.1413,62.3071 44.7403,62.3071 C42.7393,62.3071 41.3133,60.8691 41.3133,58.8811 C41.3133,56.8921 42.7273,55.4301 44.7163,55.4301 C46.8373,55.4301 48.1793,57.0721 48.0473,59.2411" id="Fill-9" fill="#6496DC"></path>
  <path d="M54.9952,58.0063 L54.9952,62.1633 L53.6412,62.1633 L53.6412,58.2813 C53.6412,57.2633 53.1982,56.7243 52.2032,56.7243 C51.0412,56.7243 50.4182,57.4793 50.4182,58.7493 L50.4182,62.1633 L49.0652,62.1633 L49.0652,55.5743 L50.4182,55.5743 L50.4182,56.6643 C50.8862,55.8983 51.5932,55.4303 52.6232,55.4303 C54.1092,55.4303 54.9952,56.4013 54.9952,58.0063" id="Fill-11" fill="#6496DC"></path>
  <path d="M61.1295,61.8285 C60.7705,62.0435 60.0035,62.3075 59.2485,62.3075 C57.8945,62.3075 56.8405,61.4565 56.8405,59.6365 L56.8405,56.8445 L55.6185,56.8445 L55.6185,55.5745 L56.8405,55.5745 L56.8405,54.0765 L58.1935,53.7765 L58.1935,55.5745 L60.9015,55.5745 L60.9015,56.8445 L58.1935,56.8445 L58.1935,59.5635 C58.1935,60.5215 58.6375,61.0495 59.4885,61.0495 C59.9075,61.0495 60.3745,60.9055 60.8895,60.7255 L61.1295,61.8285 Z" id="Fill-13" fill="#6496DC"></path>
  <path d="M61.5968,60.0434 L62.9748,60.0434 C63.1788,60.7734 63.7178,61.1094 64.8558,61.1094 C65.7298,61.1094 66.2688,60.8464 66.2688,60.3554 C66.2688,59.8034 65.6458,59.7194 64.5438,59.4564 C62.6988,59.0004 61.9198,58.6294 61.9198,57.5264 C61.9198,56.1964 63.0468,55.4304 64.6998,55.4304 C66.3888,55.4304 67.3358,56.2324 67.5758,57.4314 L66.2088,57.4314 C66.0178,56.8924 65.5138,56.6284 64.6758,56.6284 C63.8018,56.6284 63.2858,56.9284 63.2858,57.3834 C63.2858,57.8024 63.6938,57.9104 64.8438,58.1864 C66.6288,58.6054 67.6588,58.9164 67.6588,60.1984 C67.6588,61.6124 66.3888,62.3074 64.8318,62.3074 C63.0948,62.3074 61.8478,61.4694 61.5968,60.0434" id="Fill-15" fill="#6496DC"></path>
  <path d="M3.7511,32.809 C4.9921,26.443 10.5781,21.708 17.2641,21.708 C20.0781,21.708 22.7871,22.573 25.0521,24.125 L27.7001,21.477 C25.6241,19.932 23.2221,18.859 20.6691,18.35 C21.4421,10.082 28.3971,3.697 36.7801,3.697 C40.0911,3.697 43.2731,4.69 45.9841,6.568 C48.3371,8.198 50.1951,10.391 51.4081,12.954 C48.1841,13.801 45.1921,15.383 42.6741,17.574 L45.2961,20.196 C48.5081,17.48 52.6121,15.936 56.9061,15.936 C66.4471,15.936 74.2711,23.326 74.8371,32.809 L78.5401,32.809 C78.2651,27.272 75.9081,22.109 71.8951,18.262 C67.8431,14.378 62.5201,12.24 56.9061,12.24 C56.3221,12.24 55.7411,12.265 55.1641,12.312 C53.7021,8.76 51.2621,5.727 48.0891,3.529 C44.7571,1.22 40.8471,2.84217094e-14 36.7801,2.84217094e-14 C26.4781,2.84217094e-14 17.9321,7.851 16.9881,18.015 C8.3831,18.148 1.2711,24.463 0.0001,32.809 L3.7511,32.809 Z" id="Fill-17" fill="#6496DC"></path>
  <path d="M7.3683,43.0121 C7.3683,39.2871 10.1333,36.4531 13.9273,36.4531 C16.9893,36.4531 19.7093,38.3041 20.1893,41.5031 L16.8293,41.5031 C16.4413,40.1321 15.2523,39.4701 13.9273,39.4701 C11.9393,39.4701 10.6593,40.9321 10.6813,43.0121 C10.6593,45.1151 11.9853,46.5541 13.9043,46.5541 C15.2523,46.5541 16.4413,45.8681 16.8293,44.4971 L20.1893,44.4971 C19.6863,47.8111 16.9213,49.5711 13.9043,49.5711 C10.1333,49.5711 7.3683,46.7371 7.3683,43.0121" id="Fill-20" fill="#393962"></path>
  <polygon id="Fill-22" fill="#393962" points="21.719 49.2969 24.987 49.2969 24.987 32.8249 21.719 32.8249"></polygon>
  <path d="M30.0153,43.0121 C30.0153,45.0911 31.4323,46.4631 33.2603,46.4631 C35.0883,46.4631 36.5053,45.0911 36.5053,43.0121 C36.5053,40.9551 35.0883,39.5611 33.2603,39.5611 C31.4323,39.5611 30.0153,40.9551 30.0153,43.0121 M39.8193,43.0121 C39.8193,46.8061 36.9393,49.5711 33.2603,49.5711 C29.6033,49.5711 26.7243,46.7831 26.7243,43.0121 C26.7243,39.2181 29.6493,36.4531 33.2603,36.4531 C36.8933,36.4531 39.8193,39.2181 39.8193,43.0121" id="Fill-24" fill="#393962"></path>
  <path d="M53.0499,36.7279 L53.0499,49.2959 L49.7819,49.2959 L49.7819,47.5599 C48.8679,48.8389 47.6339,49.5709 45.8969,49.5709 C43.1319,49.5709 41.4179,47.6739 41.4179,44.6119 L41.4179,36.7279 L44.6859,36.7279 L44.6859,43.9039 C44.6859,45.5489 45.3029,46.4629 46.9939,46.4629 C48.7999,46.4629 49.7819,45.3889 49.7819,43.3319 L49.7819,36.7279 L53.0499,36.7279 Z" id="Fill-25" fill="#393962"></path>
  <path d="M64.6359,43.0121 C64.6359,40.9551 63.2419,39.5611 61.4139,39.5611 C59.5859,39.5611 58.2369,40.9551 58.2369,43.0121 C58.2369,45.0911 59.6089,46.4631 61.4139,46.4631 C63.2419,46.4631 64.6359,45.0911 64.6359,43.0121 Z M67.9039,32.8241 L67.9039,49.2961 L64.6359,49.2961 L64.6359,47.6061 C63.7679,48.7931 62.4419,49.5711 60.6819,49.5711 C57.4139,49.5711 54.9459,46.8741 54.9459,43.0121 C54.9459,39.1271 57.4369,36.4531 60.6589,36.4531 C62.4419,36.4531 63.7679,37.2761 64.6359,38.4871 L64.6359,32.8241 L67.9039,32.8241 Z" id="Fill-26" fill="#393962"></path>
</svg>
