<?xml version="1.0" encoding="UTF-8"?>
<svg xmlns="http://www.w3.org/2000/svg" width="24" height="25" viewBox="0 0 24 25" fill="none">
  <path d="M21.0037 12.5C21.0037 17.4726 16.9726 21.5037 12 21.5037" stroke="#656ADF" stroke-width="1.5" stroke-linecap="round" stroke-linejoin="round"></path>
  <path d="M2.99609 12.5001C2.99609 7.52745 7.02721 3.49634 11.9998 3.49634" stroke="#656ADF" stroke-width="1.5" stroke-linecap="round" stroke-linejoin="round"></path>
  <path d="M2.99609 12.5002C2.99623 13.5549 3.18381 14.6011 3.55008 15.5901C3.71759 16.0494 4.18986 16.323 4.67165 16.2398L5.65825 16.0658C6.45566 15.9252 6.99772 15.1773 6.88321 14.3758L6.58627 12.2972C6.52878 11.8948 6.31051 11.5329 5.98139 11.2944C5.65227 11.0558 5.24046 10.961 4.84015 11.0316L3.07883 11.3422" stroke="#656ADF" stroke-width="1.5" stroke-linecap="round" stroke-linejoin="round"></path>
  <path d="M21.0037 12.5001C21.0037 7.52745 16.9726 3.49634 12 3.49634" stroke="#656ADF" stroke-width="1.5" stroke-linecap="round" stroke-linejoin="round"></path>
  <path d="M21.0039 12.5002C21.0038 13.5549 20.8162 14.6011 20.4499 15.5901C20.2824 16.0494 19.8102 16.323 19.3284 16.2398L18.3418 16.0658C17.5444 15.9252 17.0023 15.1773 17.1168 14.3758L17.4138 12.2972C17.4713 11.8948 17.6895 11.5329 18.0186 11.2944C18.3478 11.0558 18.7596 10.961 19.1599 11.0316L20.9212 11.3422" stroke="#656ADF" stroke-width="1.5" stroke-linecap="round" stroke-linejoin="round"></path>
  <path d="M13.4934 12.9913C13.4904 12.9913 13.4876 12.9931 13.4865 12.9959C13.4853 12.9987 13.4859 13.0019 13.4881 13.004C13.4902 13.0062 13.4934 13.0068 13.4962 13.0057C13.499 13.0045 13.5008 13.0018 13.5008 12.9987C13.501 12.9967 13.5002 12.9948 13.4988 12.9933C13.4974 12.9919 13.4954 12.9912 13.4934 12.9913" stroke="#656ADF" stroke-width="1.5" stroke-linecap="round" stroke-linejoin="round"></path>
  <path d="M10.507 12.9942C10.504 12.9942 10.5013 12.996 10.5001 12.9988C10.499 13.0016 10.4996 13.0048 10.5018 13.007C10.5039 13.0091 10.5071 13.0097 10.5099 13.0086C10.5127 13.0074 10.5145 13.0047 10.5145 13.0017C10.5146 12.9997 10.5139 12.9977 10.5125 12.9962C10.511 12.9948 10.5091 12.9941 10.507 12.9942" stroke="#656ADF" stroke-width="1.5" stroke-linecap="round" stroke-linejoin="round"></path>
</svg>
