<svg width="24" height="25" viewBox="0 0 24 25" fill="none" xmlns="http://www.w3.org/2000/svg">
<path fill-rule="evenodd" clip-rule="evenodd" d="M7.496 3.50647H16.505C18.987 3.50647 21 5.51847 21 8.00247V17.0115C21 19.4935 18.988 21.5065 16.504 21.5065H7.496C5.013 21.5065 3 19.4945 3 17.0105V8.00247C3 5.51947 5.012 3.50647 7.496 3.50647V3.50647Z" stroke="#8F93FF" stroke-width="1.5" stroke-linecap="round" stroke-linejoin="round"/>
<path d="M16.9487 7.21948C16.7627 7.22048 16.6117 7.37148 16.6117 7.55748C16.6117 7.74348 16.7637 7.89448 16.9497 7.89448C17.1357 7.89448 17.2867 7.74348 17.2867 7.55748C17.2877 7.37048 17.1357 7.21948 16.9487 7.21948" stroke="#8F93FF" stroke-width="1.5" stroke-linecap="round" stroke-linejoin="round"/>
<path d="M14.546 9.96088C15.9519 11.3668 15.9519 13.6462 14.546 15.0521C13.1401 16.4579 10.8607 16.4579 9.45481 15.0521C8.04892 13.6462 8.04892 11.3668 9.45481 9.96088C10.8607 8.55499 13.1401 8.55499 14.546 9.96088" stroke="#8F93FF" stroke-width="1.5" stroke-linecap="round" stroke-linejoin="round"/>
</svg>
