<?xml version="1.0" encoding="UTF-8"?>
<!-- Generator: Adobe Illustrator 19.0.0, SVG Export Plug-In . SVG Version: 6.00 Build 0)  -->
<svg xmlns="http://www.w3.org/2000/svg" xmlns:xlink="http://www.w3.org/1999/xlink" id="Capa_1" x="0px" y="0px" viewBox="0 0 512 512" style="enable-background:new 0 0 512 512;" xml:space="preserve">
<path style="fill:#95ADC0;" d="M202.667,181.333H384v53.333H202.667V181.333z"></path>
<g>
	<path style="fill:#F2F2F2;" d="M128,234.667h74.667v202.667H128V234.667z"></path>
	<path style="fill:#F2F2F2;" d="M202.667,234.667H384v202.667H202.667V234.667z"></path>
</g>
<path style="fill:#95ADC0;" d="M128,181.333h74.667v53.333H128V181.333z"></path>
<path style="fill:#AAC4DA;" d="M448,96h-64c-11.767-0.035-21.298-9.566-21.333-21.333v-64L448,96z"></path>
<path style="fill:#D9EEF7;" d="M448,96v384c-0.035,11.768-9.566,21.298-21.333,21.333H85.333C73.566,501.298,64.035,491.768,64,480  V32c0.035-11.767,9.566-21.298,21.333-21.333h277.333v64C362.702,86.434,372.233,95.965,384,96H448z M384,437.333v-256H128v256H384z  "></path>
<g>
	<path style="fill:#4C5B66;" d="M117.333,64H224v21.333H117.333V64z"></path>
	<path style="fill:#4C5B66;" d="M117.333,106.667h21.333V128h-21.333V106.667z"></path>
	<path style="fill:#4C5B66;" d="M160,106.667h21.333V128H160V106.667z"></path>
	<path style="fill:#4C5B66;" d="M455.541,88.459L370.208,3.125c-2-2.001-4.713-3.125-7.541-3.125H85.333c-17.673,0-32,14.327-32,32   l0,0v448c0,17.673,14.327,32,32,32h341.333c17.673,0,32-14.327,32-32V96C458.666,93.171,457.542,90.459,455.541,88.459z    M437.333,480c0,5.891-4.776,10.667-10.667,10.667H85.333c-5.891,0-10.667-4.776-10.667-10.667V32   c0-5.891,4.776-10.667,10.667-10.667H352v53.333c0,17.673,14.327,32,32,32h21.333V85.333H384c-5.891,0-10.667-4.776-10.667-10.667   V36.416l64,64V480z"></path>
	<path style="fill:#4C5B66;" d="M384,170.667H128c-5.891,0-10.667,4.776-10.667,10.667v256c0,5.891,4.776,10.667,10.667,10.667h256   c5.891,0,10.667-4.776,10.667-10.667v-256C394.667,175.442,389.891,170.667,384,170.667z M373.333,224h-160v-32h160V224z M192,192   v32h-53.333v-32H192z M138.667,245.333H192v181.333h-53.333V245.333z M213.333,426.667V245.333h160v181.333H213.333z"></path>
</g>
<g>
</g>
<g>
</g>
<g>
</g>
<g>
</g>
<g>
</g>
<g>
</g>
<g>
</g>
<g>
</g>
<g>
</g>
<g>
</g>
<g>
</g>
<g>
</g>
<g>
</g>
<g>
</g>
<g>
</g>
</svg>
