<?xml version="1.0" encoding="UTF-8"?>
<svg xmlns="http://www.w3.org/2000/svg" width="210" height="56" viewBox="0 0 210 56" fill="none">
  <path d="M28 56C43.464 56 56 43.464 56 28C56 12.536 43.464 0 28 0C12.536 0 0 12.536 0 28C0 43.464 12.536 56 28 56Z" fill="#078038"></path>
  <path d="M30.7843 29.1599V27.2262H24.5964V27.6903V29.1599C24.5964 31.3256 25.5246 32.4085 27.6904 32.4085C29.8561 32.4085 30.7843 31.3256 30.7843 29.1599Z" fill="white"></path>
  <path d="M43.7788 14.1546H9.97772L13.6904 21.1159H36.6628C36.6628 21.1159 36.6628 26.3756 36.6628 29.3148C36.6628 35.1159 33.7236 37.9778 27.8451 38.0552C22.044 38.0552 19.1048 35.1159 19.1048 29.2375C19.1048 27.8452 19.1048 28.0773 19.1048 27.3038H12.0661C12.0661 28.0773 12.0661 28.232 12.0661 29.5469C12.0661 40.0662 17.2484 45.1712 27.8451 45.1712C38.3645 45.1712 43.7015 39.9889 43.7015 29.4695C43.7788 24.7513 43.7788 14.1546 43.7788 14.1546Z" fill="white"></path>
  <path d="M108.04 42.779H91.156C90.459 42.779 90.0718 42.4337 90.0718 41.8122V14.1879C90.0718 13.5663 90.459 13.221 91.156 13.221H108.04C108.737 13.221 109.046 13.5663 109.046 14.1879V17.2956C109.046 17.9171 108.737 18.2624 108.04 18.2624H97.2744C96.8872 18.2624 96.6548 18.4006 96.6548 18.7459V24.7542C96.6548 25.0995 96.8872 25.2376 97.2744 25.2376H106.103C106.8 25.2376 107.188 25.5829 107.188 26.2044V29.3122C107.188 29.9337 106.8 30.279 106.103 30.279H97.2744C96.8872 30.279 96.6548 30.4171 96.6548 30.7624V37.1851C96.6548 37.5304 96.8872 37.6685 97.2744 37.6685H108.04C108.737 37.6685 109.046 38.0138 109.046 38.6354V41.7431C109.046 42.5028 108.737 42.779 108.04 42.779Z" fill="#078038"></path>
  <path d="M125.543 42.779H121.206C120.431 42.779 120.044 42.4337 120.044 41.8121V18.8149C120.044 18.4696 119.889 18.3315 119.502 18.3315H113.616C112.919 18.3315 112.532 17.9862 112.532 17.3646V14.2569C112.532 13.6353 112.919 13.29 113.616 13.29H133.133C133.83 13.29 134.217 13.6353 134.217 14.2569V17.3646C134.217 17.9862 133.83 18.3315 133.133 18.3315H127.247C126.86 18.3315 126.627 18.4696 126.627 18.8149V41.8121C126.627 42.5027 126.24 42.779 125.543 42.779Z" fill="#078038"></path>
  <path d="M83.7985 13.221H83.5661H79.4614H67.6893C66.9923 13.221 66.6051 13.5663 66.6051 14.1879V17.2956C66.6051 17.9171 66.9923 18.2624 67.6893 18.2624H78.3771V34.9751C78.3771 35.942 78.1448 36.6326 77.6801 37.047C77.2154 37.4613 76.4409 37.6685 75.3567 37.6685H72.3362C71.2519 37.6685 70.4774 37.4613 70.0128 37.047C69.5481 36.6326 69.3157 35.942 69.3157 34.9751V30.9006C69.3157 30.279 68.9285 29.9337 68.2315 29.9337H63.8169C63.1199 29.9337 62.7327 30.279 62.7327 30.9006V35.2514C62.7327 37.6685 63.5071 39.5332 64.9787 40.8453C66.4502 42.1575 68.5413 42.779 71.2519 42.779H76.4409C79.1516 42.779 81.1652 42.1575 82.7142 40.8453C84.1857 39.5332 84.9602 37.6685 84.9602 35.3205V14.1879C84.8827 13.5663 84.5729 13.221 83.7985 13.221Z" fill="#078038"></path>
  <path d="M143.511 42.779H139.096C138.399 42.779 138.012 42.4337 138.012 41.8122V14.1879C138.012 13.5663 138.399 13.221 139.096 13.221H151.643C154.353 13.221 156.367 13.8426 157.916 15.1547C159.387 16.4669 160.162 18.3315 160.162 20.6796V25.1685C160.162 27.5856 159.387 29.3812 157.916 30.6934C156.444 32.0055 154.353 32.6271 151.643 32.6271H145.137C144.75 32.6271 144.517 32.7652 144.517 33.1105V41.8122C144.595 42.5028 144.208 42.779 143.511 42.779ZM145.137 27.5166H150.636C151.72 27.5166 152.495 27.3094 152.959 26.895C153.424 26.4807 153.656 25.7901 153.656 24.8232V21.0249C153.656 20.058 153.424 19.3674 152.959 18.9531C152.495 18.5387 151.72 18.3315 150.636 18.3315H145.137C144.75 18.3315 144.595 18.4696 144.595 18.8149V27.0332C144.595 27.3785 144.75 27.5166 145.137 27.5166Z" fill="#078038"></path>
  <path d="M166.125 42.779H161.169C160.549 42.779 160.317 42.4337 160.549 41.8122L168.681 14.1879C168.914 13.5663 169.456 13.221 170.23 13.221H177.123C177.975 13.221 178.517 13.5663 178.672 14.1879L186.804 41.8122C187.036 42.4337 186.804 42.779 186.184 42.779H181.228C180.841 42.779 180.608 42.71 180.453 42.5718C180.298 42.4337 180.221 42.1575 180.143 41.8122L178.672 36.7707H168.604L167.132 41.8122C167.055 42.1575 166.977 42.4337 166.822 42.5718C166.745 42.71 166.513 42.779 166.125 42.779ZM173.638 18.8149L169.92 32.0746H177.588L173.87 18.8149H173.638Z" fill="#078038"></path>
  <path d="M199.273 42.779H194.859C194.162 42.779 193.775 42.4337 193.775 41.8121V32.0055L184.326 14.2569C184.171 13.9806 184.171 13.7735 184.326 13.5663C184.481 13.3591 184.713 13.29 185.023 13.29H190.522C191.064 13.29 191.451 13.6353 191.761 14.2569L196.95 25.4447H197.337L202.371 14.2569C202.604 13.6353 202.991 13.29 203.611 13.29H209.109C209.419 13.29 209.729 13.3591 209.884 13.5663C210.039 13.7735 210.039 13.9806 209.884 14.3259L200.435 32.0746V41.8812C200.358 42.5027 200.048 42.779 199.273 42.779Z" fill="#078038"></path>
</svg>
