<svg width="24" height="25" viewBox="0 0 24 25" fill="none" xmlns="http://www.w3.org/2000/svg">
<path fill-rule="evenodd" clip-rule="evenodd" d="M7.5 3.50647H16.504C18.987 3.50647 21 5.51947 21 8.00247V17.0115C21 19.4935 18.987 21.5065 16.504 21.5065H7.496C5.013 21.5065 3 19.4935 3 17.0105V8.00647C3 5.52147 5.015 3.50647 7.5 3.50647V3.50647Z" stroke="#8F93FF" stroke-width="1.5" stroke-linecap="round" stroke-linejoin="round"/>
<path d="M9.65126 14.8525C11.8343 17.0365 14.6003 18.4285 16.2453 16.7905L16.6443 16.3915C17.1763 15.8605 17.1023 14.9805 16.4843 14.5515C16.0953 14.2805 15.6773 13.9895 15.2153 13.6645C14.7373 13.3285 14.0823 13.3815 13.6673 13.7925L13.2163 14.2405C12.6573 13.8865 12.1043 13.4315 11.5903 12.9185L11.5883 12.9165C11.0753 12.4035 10.6203 11.8495 10.2663 11.2905L10.7143 10.8395C11.1263 10.4255 11.1773 9.76947 10.8423 9.29147C10.5163 8.82947 10.2253 8.41147 9.95526 8.02247C9.52626 7.40547 8.64626 7.33147 8.11526 7.86247L7.71626 8.26147C6.07926 9.90647 7.47026 12.6705 9.65326 14.8555" stroke="#8F93FF" stroke-width="1.5" stroke-linecap="round" stroke-linejoin="round"/>
</svg>
