<svg width="38" height="39" viewBox="0 0 38 39" fill="none" xmlns="http://www.w3.org/2000/svg">
<path fill-rule="evenodd" clip-rule="evenodd" d="M33.899 6.3105L33.6863 6.10151C33.3886 5.80909 33.0868 5.51275 32.789 5.2125C32.4887 4.91462 32.1923 4.61284 31.8998 4.31503L31.691 4.1025C29.123 1.482 27.5945 0 26 0H14C10.6925 0 8 2.6925 8 6V28.5V33C8 36.3075 10.6925 39 14 39H32C35.3075 39 38 36.3075 38 33V12C38 10.407 36.518 8.877 33.899 6.3105ZM11 28.5V33C11 34.656 12.344 36 14 36H32C33.656 36 35 34.656 35 33V13.5C35 12.0075 33.497 12 32 12H27.5C26.6735 12 26 11.3265 26 10.5L26 5.87563C26.0002 4.56331 26.0004 3.26627 24.9335 2.994L14 3C12.344 3 11 4.344 11 6V28.5Z" fill="#292929"/>
<rect y="17" width="28" height="13" rx="2" fill="#292929"/>
<path d="M5.11523 24.7192H3.48486V23.6909H5.11523C5.36719 23.6909 5.57227 23.6499 5.73047 23.5679C5.88867 23.4829 6.00439 23.3657 6.07764 23.2163C6.15088 23.0669 6.1875 22.8984 6.1875 22.7109C6.1875 22.5205 6.15088 22.3433 6.07764 22.1792C6.00439 22.0151 5.88867 21.8833 5.73047 21.7837C5.57227 21.6841 5.36719 21.6343 5.11523 21.6343H3.94189V27H2.62354V20.6016H5.11523C5.61621 20.6016 6.04541 20.6924 6.40283 20.874C6.76318 21.0527 7.03857 21.3003 7.229 21.6167C7.41943 21.9331 7.51465 22.2949 7.51465 22.7021C7.51465 23.1152 7.41943 23.4727 7.229 23.7744C7.03857 24.0762 6.76318 24.3091 6.40283 24.4731C6.04541 24.6372 5.61621 24.7192 5.11523 24.7192ZM10.916 24.7192H9.28564V23.6909H10.916C11.168 23.6909 11.373 23.6499 11.5312 23.5679C11.6895 23.4829 11.8052 23.3657 11.8784 23.2163C11.9517 23.0669 11.9883 22.8984 11.9883 22.7109C11.9883 22.5205 11.9517 22.3433 11.8784 22.1792C11.8052 22.0151 11.6895 21.8833 11.5312 21.7837C11.373 21.6841 11.168 21.6343 10.916 21.6343H9.74268V27H8.42432V20.6016H10.916C11.417 20.6016 11.8462 20.6924 12.2036 20.874C12.564 21.0527 12.8394 21.3003 13.0298 21.6167C13.2202 21.9331 13.3154 22.2949 13.3154 22.7021C13.3154 23.1152 13.2202 23.4727 13.0298 23.7744C12.8394 24.0762 12.564 24.3091 12.2036 24.4731C11.8462 24.6372 11.417 24.7192 10.916 24.7192ZM17.0859 20.6016V27H15.772V20.6016H17.0859ZM19.0547 20.6016V21.6343H13.834V20.6016H19.0547ZM20.8916 20.6016L22.0957 22.834L23.2998 20.6016H24.8071L22.9482 23.7744L24.8555 27H23.335L22.0957 24.7236L20.8564 27H19.3271L21.2388 23.7744L19.3755 20.6016H20.8916Z" fill="white"/>
</svg>
