<?xml version="1.0" encoding="UTF-8"?>
<svg xmlns="http://www.w3.org/2000/svg" width="717" height="130" viewBox="0 0 717 130" fill="none">
  <path d="M693.541 92.32C701.872 92.32 706.875 83.8893 706.875 76.5373V74.6894H704.425C697.369 74.6894 684.231 75.2773 684.231 84.3947C684.235 88.304 687.371 92.32 693.545 92.32H693.541ZM704.327 67.8134H706.875V66.8347C706.875 58.7067 702.168 55.9547 695.995 55.9547C691.092 55.9547 686.093 57.916 682.073 60.7573L678.249 53.796C682.269 50.4707 689.817 47.9147 696.777 47.9147C709.228 47.9147 716.385 54.776 716.385 67.3253V98.6973H707.465V93.6947C707.461 92.3813 707.56 91.0707 707.761 89.7747H707.565C704.48 95.932 698.197 99.8347 691.309 99.872C682.683 99.872 674.743 94.4813 674.743 85.1667C674.724 69.58 694.036 67.8134 704.327 67.8134V67.8134ZM648.748 47.9107C655.317 47.9107 662.669 50.164 667.372 55.1627L662.861 61.8134C659.18 58.2347 654.269 56.2 649.136 56.128C639.139 56.128 631.881 63.676 631.881 73.7733C631.881 83.8707 639.135 91.6147 649.432 91.6147C654.921 91.6147 660.884 88.9693 664.723 84.964L668.548 91.9253C664.036 96.728 656.488 99.864 648.744 99.864C633.06 99.864 622.176 88.78 622.176 73.888C622.18 59.1867 633.16 47.9107 648.748 47.9107V47.9107ZM596.399 47.9107C602.968 47.9107 610.32 50.164 615.024 55.1627L610.513 61.8134C606.831 58.2347 601.92 56.2 596.787 56.128C586.789 56.128 579.533 63.676 579.533 73.7733C579.533 83.8707 586.785 91.6147 597.083 91.6147C602.573 91.6147 608.536 88.9693 612.375 84.964L616.199 91.9253C611.688 96.728 604.139 99.864 596.396 99.864C580.712 99.864 569.827 88.78 569.827 73.888C569.843 59.1867 580.812 47.9107 596.399 47.9107V47.9107ZM536.221 92.32C544.552 92.32 549.555 83.8893 549.555 76.5373V74.6894H547.105C540.049 74.6894 526.911 75.2773 526.911 84.3947C526.896 88.304 530.037 92.32 536.221 92.32ZM546.995 67.8134H549.544V66.8347C549.544 58.7067 544.837 55.9547 538.664 55.9547C533.761 55.9547 528.763 57.916 524.743 60.7573L520.919 53.796C524.937 50.4707 532.487 47.9147 539.447 47.9147C551.897 47.9147 559.053 54.776 559.053 67.3253V98.6973H550.132V93.6947C550.127 92.3813 550.225 91.0707 550.427 89.7747H550.232C547.145 95.932 540.863 99.8347 533.975 99.872C525.348 99.872 517.409 94.4813 517.409 85.1667C517.379 69.58 536.701 67.8134 546.995 67.8134V67.8134ZM463.571 29.4827H473.276V58.5947H483.569L501.119 29.4827H511.804L491.609 62.32V62.516L513.079 98.6894H501.995L483.567 67.0267H473.272V98.6894H463.567L463.571 29.4827Z" fill="#2D3540"></path>
  <path d="M237.697 83.1867L230.279 74.264C229.773 73.652 229.859 72.7467 230.469 72.2413C230.728 72.028 231.052 71.9107 231.387 71.9107H246.905C247.661 69.6534 248.047 67.288 248.043 64.9053C248.043 53.7293 239.727 44.0907 228.305 44.0907C216.885 44.0907 208.584 53.7413 208.584 64.9053C208.584 76.0707 216.905 85.596 228.325 85.596C231.604 85.6093 234.832 84.78 237.697 83.1867V83.1867ZM271.267 98.264C271.777 98.848 271.717 99.7347 271.133 100.245C270.875 100.472 270.543 100.595 270.199 100.592H253.26C252.569 100.593 251.915 100.285 251.475 99.7534L248.601 96.3107C231.237 107.539 208.057 102.565 196.829 85.2013C185.601 67.8387 190.575 44.6587 207.937 33.4293C225.301 22.2013 248.48 27.1747 259.709 44.5387C267.688 56.8787 267.712 72.7453 259.769 85.108L271.267 98.264ZM427.759 29.272H413.937C412.917 29.272 412.091 30.0987 412.091 31.1187V98.748C412.091 99.768 412.917 100.596 413.937 100.596H427.759C428.779 100.596 429.607 99.768 429.607 98.748V31.0854C429.607 30.0654 428.779 29.2387 427.759 29.2387V29.272ZM404.472 29.2387H389.011C388.204 29.2374 387.492 29.76 387.248 30.528L375.012 70.5147L361.556 30.4947C361.299 29.7507 360.599 29.2507 359.812 29.2494H349.02C348.231 29.2494 347.529 29.7493 347.272 30.4947L333.824 70.5214L321.588 30.5454C321.344 29.78 320.633 29.2587 319.828 29.2573H304.363C303.781 29.2573 303.235 29.5307 302.885 29.996C302.54 30.4707 302.445 31.0827 302.631 31.64L325.333 99.3467C325.591 100.093 326.293 100.593 327.081 100.592H339.355C340.14 100.589 340.839 100.091 341.095 99.3467L354.417 59.796L367.717 99.3467C367.975 100.092 368.675 100.591 369.463 100.592H381.74C382.527 100.591 383.227 100.092 383.483 99.3467L406.216 31.6547C406.401 31.0974 406.307 30.4854 405.961 30.0107C405.612 29.5454 405.064 29.272 404.483 29.272L404.472 29.2387ZM296.767 31.0854V98.748C296.767 99.768 295.94 100.596 294.92 100.596H281.103C280.081 100.596 279.255 99.768 279.255 98.748V31.0854C279.255 30.0654 280.081 29.2387 281.103 29.2387H294.924C295.944 29.2387 296.771 30.0654 296.771 31.0854" fill="#F57D14"></path>
  <path d="M162.191 64.8507C162.188 100.324 133.428 129.079 97.9533 129.075C78.7733 129.072 60.5973 120.499 48.3973 105.699H98.3293C120.888 105.395 138.928 86.8627 138.625 64.3053C138.327 42.176 120.46 24.308 98.3293 24.0107C97.824 24.0107 49.1253 24.0107 48.3933 24.0107C70.9573 -3.36265 111.439 -7.26132 138.811 15.3013C153.612 27.5013 162.185 45.6773 162.188 64.8573L162.191 64.8507" fill="#F57D14"></path>
  <path d="M88.436 35.5854C88.4693 34.4841 87.604 33.5654 86.504 33.532H20.1827C19.08 33.56 18.2107 34.476 18.2387 35.576C18.2387 35.58 18.2387 35.5827 18.2387 35.5854V45.5161C18.2053 46.6174 19.0707 47.5374 20.1707 47.5707H86.5186C87.6186 47.5374 88.484 46.6174 88.4506 45.5161L88.436 35.5854Z" fill="#F57D14"></path>
  <path d="M62.9426 59.8853C62.9426 58.7507 62.1706 57.8307 61.2146 57.8307H1.86397C0.91064 57.8307 0.134644 58.7507 0.134644 59.8853V69.816C0.134644 70.9507 0.907973 71.8707 1.86397 71.8707H61.2146C62.1666 71.8707 62.9426 70.9507 62.9426 69.816V59.8853" fill="#F57D14"></path>
  <path d="M88.436 84.188C88.4693 83.088 87.604 82.168 86.504 82.1333H20.1827C19.08 82.1613 18.2107 83.0773 18.2387 84.1787C18.2387 84.1813 18.2387 84.1854 18.2387 84.188V94.12C18.2053 95.22 19.0707 96.1387 20.1707 96.1733H86.5186C87.6186 96.1387 88.484 95.22 88.4506 94.12L88.436 84.188" fill="#F57D14"></path>
</svg>
