<?xml version="1.0" encoding="UTF-8"?>
<svg xmlns="http://www.w3.org/2000/svg" width="38" height="39" viewBox="0 0 38 39" fill="none">
  <path fill-rule="evenodd" clip-rule="evenodd" d="M33.899 6.3105L33.6863 6.10151C33.3886 5.80909 33.0868 5.51275 32.789 5.2125C32.4887 4.91462 32.1923 4.61284 31.8998 4.31503L31.691 4.1025C29.123 1.482 27.5945 0 26 0H14C10.6925 0 8 2.6925 8 6V28.5V33C8 36.3075 10.6925 39 14 39H32C35.3075 39 38 36.3075 38 33V12C38 10.407 36.518 8.877 33.899 6.3105ZM11 28.5V33C11 34.656 12.344 36 14 36H32C33.656 36 35 34.656 35 33V13.5C35 12.0075 33.497 12 32 12H27.5C26.6735 12 26 11.3265 26 10.5L26 5.87563C26.0002 4.56331 26.0004 3.26627 24.9335 2.994L14 3C12.344 3 11 4.344 11 6V28.5Z" fill="black"></path>
  <rect y="17" width="25" height="13" rx="2" fill="black"></rect>
  <path d="M6.66406 24.6577H5.61377V27H4.29541V20.6016H6.67285C7.42871 20.6016 8.01172 20.77 8.42188 21.1069C8.83203 21.4438 9.03711 21.9199 9.03711 22.5352C9.03711 22.9717 8.94189 23.3364 8.75146 23.6294C8.56396 23.9194 8.27832 24.1509 7.89453 24.3237L9.27881 26.9385V27H7.86377L6.66406 24.6577ZM5.61377 23.5898H6.67725C7.0083 23.5898 7.26465 23.5063 7.44629 23.3394C7.62793 23.1694 7.71875 22.9365 7.71875 22.6406C7.71875 22.3389 7.63232 22.1016 7.45947 21.9287C7.28955 21.7559 7.02734 21.6694 6.67285 21.6694H5.61377V23.5898ZM13.6558 25.6816H11.3442L10.9048 27H9.50293L11.8848 20.6016H13.1064L15.5015 27H14.0996L13.6558 25.6816ZM11.7002 24.6138H13.2998L12.4956 22.2188L11.7002 24.6138ZM18.4678 24.6577H17.4175V27H16.0991V20.6016H18.4766C19.2324 20.6016 19.8154 20.77 20.2256 21.1069C20.6357 21.4438 20.8408 21.9199 20.8408 22.5352C20.8408 22.9717 20.7456 23.3364 20.5552 23.6294C20.3677 23.9194 20.082 24.1509 19.6982 24.3237L21.0825 26.9385V27H19.6675L18.4678 24.6577ZM17.4175 23.5898H18.481C18.812 23.5898 19.0684 23.5063 19.25 23.3394C19.4316 23.1694 19.5225 22.9365 19.5225 22.6406C19.5225 22.3389 19.436 22.1016 19.2632 21.9287C19.0933 21.7559 18.8311 21.6694 18.4766 21.6694H17.4175V23.5898Z" fill="white"></path>
</svg>
