<?xml version="1.0" encoding="UTF-8"?>
<svg xmlns="http://www.w3.org/2000/svg" width="590" height="295" viewBox="0 0 590 295" fill="none">
  <path fill-rule="evenodd" clip-rule="evenodd" d="M8.67802 7.00501C12.9679 2.35481 19.3977 0.0547911 25.6478 0.174991C56.3377 0.234791 87.0278 0.154818 117.718 0.224918C129.738 0.715018 142.718 3.1749 151.688 11.8248C161.668 21.265 164.328 35.735 164.648 48.9048C165.268 63.0148 161.168 78.0149 150.888 88.115C146.268 92.9549 140.288 96.3049 133.928 98.265C145.258 114.435 156.298 130.815 167.408 147.155C155.468 147.105 142.428 148.415 131.828 141.755C124.408 137.385 120.728 129.335 116.088 122.475C112.448 117.195 109.718 110.935 104.208 107.265C99.6777 104.115 93.998 103.435 88.6178 103.445C71.1277 103.455 53.6377 103.445 36.1479 103.445C35.8679 112.285 36.7679 121.195 35.498 129.975C34.5078 136.535 30.4477 142.895 24.0077 145.215C16.6478 148.035 8.58781 146.985 0.887815 147.195C0.897715 107.435 0.877914 67.675 0.897714 27.9049C1.18771 20.405 3.40782 12.5748 8.67802 7.00501V7.00501ZM44.5779 31.7249C39.6578 34.2548 36.2678 39.5349 36.1479 45.0749C36.0779 58.6548 36.2378 72.245 36.0677 85.8249C38.3278 79.3248 44.318 73.7649 51.5378 74.185C70.5877 74.2049 89.6377 74.195 108.688 74.195C114.098 74.0451 120.248 73.6151 124.268 69.515C128.568 65.2251 129.108 58.785 129.378 53.0449C129.328 46.765 129.148 39.745 124.928 34.665C120.858 30.1849 114.418 29.5451 108.728 29.455C91.6877 29.4249 74.6478 29.4751 57.6178 29.4351C53.1978 29.375 48.5078 29.455 44.5779 31.725V31.7249ZM197.168 8.58481C203.458 2.78481 212.208 0.434897 220.588 0.194797C246.968 0.194797 273.338 0.194797 299.708 0.194797C311.628 0.544897 324.338 2.12489 334.238 9.32489C342.258 15.1748 345.728 25.3548 345.888 34.9748C345.938 43.2049 345.838 51.8749 342.138 59.425C339.448 64.9149 333.698 67.775 328.178 69.645C336.408 72.1548 344.918 76.745 348.428 85.0749C352.378 94.6248 352.128 105.345 350.798 115.415C349.508 124.475 345.298 133.495 337.628 138.845C327.488 145.985 314.578 146.885 302.568 147.195C264.838 147.205 227.118 147.195 189.388 147.195C189.388 107.445 189.378 67.705 189.388 27.9548C189.468 20.8548 191.958 13.565 197.168 8.58481ZM233.018 30.2548C228.058 32.8349 224.638 38.2148 224.678 43.8549C224.558 53.5848 224.688 63.315 224.628 73.0449C227.708 66.0748 233.968 59.645 242.038 59.4848C260.228 59.3748 278.408 59.465 296.598 59.4548C301.398 59.6249 306.138 56.8548 308.298 52.555C311.068 46.9049 311.598 39.7449 308.488 34.1349C305.988 29.6448 300.578 27.965 295.738 27.9848C278.708 27.8748 261.678 27.995 244.648 27.925C240.678 27.925 236.528 28.215 233.018 30.2548ZM228.908 92.225C225.798 96.0648 224.648 101.075 224.648 105.925C224.598 115.375 224.678 124.815 224.618 134.265C227.638 126.765 233.998 119.685 242.558 119.235C260.938 119.105 279.318 119.285 297.698 119.155C302.258 118.855 307.138 118.825 311.218 116.475C314.938 114.425 315.968 109.845 316.158 105.925C316.338 101.295 316.638 96.3548 314.678 92.0348C311.578 86.3649 304.238 86.135 298.568 85.7949C280.598 85.5548 262.618 85.7648 244.648 85.6849C238.818 85.5349 232.528 87.4049 228.908 92.225V92.225ZM385.408 6.64499C393.178 1.14499 403.058 -0.0951871 412.338 0.0548129C412.448 23.8749 412.348 47.695 412.398 71.5148C434.728 53.665 456.168 34.7449 477.968 16.265C483.478 11.6748 488.628 6.295 495.518 3.775C509.178 -1.915 524.228 0.914813 538.568 0.135013C513.508 23.025 488.488 45.965 463.488 68.9148C476.178 81.6248 488.888 94.3249 501.588 107.025C514.938 120.505 528.688 133.575 541.928 147.165C534.498 147.125 527.058 147.435 519.648 146.945C507.938 146.135 496.328 141.845 487.348 134.205C474.878 122.695 462.438 111.145 449.968 99.635C446.288 96.255 442.818 92.545 438.398 90.1248C430.508 85.705 421.328 84.225 412.388 84.155C412.348 97.4348 412.458 110.725 412.338 124.005C412.158 131.765 408.808 140.055 401.718 143.915C394.198 148.265 385.188 146.995 376.888 147.195C376.908 106.105 376.858 65.0149 376.918 23.925C376.918 17.275 379.888 10.5248 385.408 6.64499V6.64499ZM15.1477 198.205C24.0777 194.115 34.1078 195.065 43.6478 194.935C51.518 195.005 60.0179 195.255 66.7678 199.835C69.7277 201.795 71.8477 204.715 73.4978 207.805C77.2679 199.795 85.9878 195.725 94.4878 195.315C104.328 194.825 114.288 194.455 124.078 195.765C134.888 197.375 145.458 205.805 146.088 217.305C146.178 230.815 146.168 244.335 146.098 257.845C145.988 262.995 140.328 265.135 135.908 264.795C135.828 250.155 135.968 235.515 135.838 220.875C135.828 215.415 133.078 209.995 128.288 207.235C120.878 202.785 111.888 203.815 103.628 203.685C96.8378 203.785 89.2778 204.505 84.068 209.355C80.258 212.695 78.708 217.855 78.6779 222.795C78.528 234.625 78.7681 246.475 78.5779 258.315C78.2079 263.255 72.6279 265.085 68.3978 264.805C68.3479 250.495 68.448 236.175 68.3578 221.865C68.2878 216.285 65.6479 210.685 60.8678 207.655C54.2881 203.415 46.128 203.665 38.6079 203.685C31.468 203.575 23.6881 203.695 17.6378 208.015C13.4281 210.945 11.2678 216.045 11.2479 221.075C10.9081 233.565 11.3781 246.075 11.028 258.565C10.3678 263.315 5.06782 264.985 0.908015 264.805C0.868015 249.505 0.887915 234.205 0.897815 218.905C0.828115 209.875 6.97781 201.645 15.1478 198.205H15.1477ZM180.038 195.545C188.818 194.075 197.758 194.905 206.618 194.695C216.818 194.755 227.998 193.795 236.958 199.645C244.758 204.495 247.958 214.195 247.398 223.025C246.898 232.745 249.138 243.285 243.988 252.165C239.228 260.765 229.018 264.445 219.648 264.675C208.608 264.715 197.568 264.705 186.538 264.675C178.358 264.395 169.438 262.175 164.088 255.525C159.158 249.495 158.488 241.335 158.628 233.855C158.838 225.245 157.588 216.045 161.738 208.115C165.168 201.095 172.518 196.815 180.038 195.545V195.545ZM181.028 204.475C176.528 205.505 172.438 208.585 170.688 212.925C168.378 218.305 169.318 224.275 169.148 229.955C169.248 236.185 168.258 243.065 171.938 248.555C175.738 254.305 183.098 256.175 189.628 255.965C199.308 255.905 208.988 255.995 218.668 255.925C225.148 255.765 232.328 252.995 235.208 246.775C238.338 239.905 236.738 232.185 237.148 224.905C237.568 218.425 235.998 211.055 230.278 207.195C222.788 201.995 213.228 203.755 204.668 203.445C196.798 203.745 188.768 202.645 181.028 204.475V204.475ZM269.168 202.505C274.798 196.965 282.978 195.225 290.608 195.025C299.278 194.835 307.948 194.995 316.628 194.945C324.568 194.975 333.108 195.945 339.518 201.095C346.068 206.215 348.918 214.785 348.908 222.875C348.828 234.575 348.988 246.285 348.828 257.985C348.618 263.055 342.998 265.045 338.668 264.815C338.588 250.825 338.678 236.835 338.628 222.845C338.598 217.635 336.888 212.215 332.928 208.665C328.828 204.895 323.048 203.685 317.628 203.685C309.288 203.695 300.948 203.695 292.618 203.685C287.668 203.675 282.498 204.635 278.498 207.705C274.028 210.935 271.788 216.505 271.668 221.895C271.518 233.835 271.798 245.775 271.548 257.705C271.208 262.725 265.798 264.935 261.398 264.855C261.358 250.885 261.408 236.925 261.368 222.955C261.318 215.515 263.628 207.705 269.168 202.505V202.505ZM365.278 212.355C368.498 202.885 377.798 196.465 387.508 195.205C394.848 194.245 402.278 194.875 409.658 194.695C419.818 194.875 430.688 193.565 440.018 198.495C445.098 201.185 449.378 205.645 451.278 211.125C453.558 217.395 452.338 224.185 452.638 230.695C426.468 230.695 400.308 230.695 374.138 230.695C374.208 236.945 373.628 243.855 377.328 249.285C380.418 253.955 386.258 255.895 391.648 255.945C403.668 255.945 415.688 255.955 427.718 255.935C432.478 255.825 437.798 254.015 440.278 249.645C441.548 247.625 442.498 245.235 444.608 243.915C446.938 242.165 449.958 242.165 452.738 242.125C452.618 247.665 451.248 253.495 447.338 257.625C442.698 262.835 435.428 264.735 428.668 264.705C416.008 264.665 403.358 264.745 390.698 264.665C382.108 264.335 372.368 261.815 367.598 254.015C362.968 246.855 363.958 238.005 363.888 229.915C364.078 224.055 363.128 217.965 365.278 212.355V212.355ZM377.878 210.195C374.198 214.985 374.178 221.255 374.048 227.015C375.788 223.995 378.918 221.845 382.508 221.985C402.478 221.885 422.458 221.975 442.438 221.945C442.038 217.725 441.288 213.305 438.568 209.905C435.128 205.305 429.178 203.395 423.618 203.445C412.958 203.465 402.288 203.425 391.618 203.455C386.338 203.485 380.968 205.815 377.878 210.195V210.195ZM459.248 194.845C464.478 194.925 470.598 196.115 473.428 201.045C482.208 217.015 490.878 233.055 499.538 249.095C500.728 251.305 502.288 253.275 503.958 255.145C511.918 237.315 519.478 219.305 527.198 201.365C529.518 196.205 535.638 194.665 540.818 194.865C528.948 221.695 517.008 248.505 505.128 275.345C502.188 281.825 498.488 288.765 491.708 291.885C485.978 294.665 479.448 294.545 473.248 294.425C473.428 291.475 473.658 287.515 476.938 286.305C480.938 285.585 485.398 285.855 488.718 283.085C494.288 278.475 496.858 271.425 499.838 265.055C496.688 262.985 494.718 259.715 492.988 256.475C481.828 235.875 470.408 215.435 459.248 194.845V194.845Z" fill="#2C2C2C"></path>
  <path fill-rule="evenodd" clip-rule="evenodd" d="M569.118 116.685C578.468 113.585 589.468 120.975 589.668 130.915C590.588 139.225 583.938 147.385 575.588 148.085C567.428 149.295 559.118 143.165 557.878 135.015C556.308 127.195 561.358 118.725 569.118 116.685Z" fill="#38CD8F"></path>
</svg>
