<svg width="24" height="25" viewBox="0 0 24 25" fill="none" xmlns="http://www.w3.org/2000/svg">
<path fill-rule="evenodd" clip-rule="evenodd" d="M7.5 3.50647H16.504C18.987 3.50647 21 5.51947 21 8.00247V17.0115C21 19.4935 18.987 21.5065 16.504 21.5065H7.496C5.013 21.5065 3 19.4935 3 17.0105V8.00647C3 5.52147 5.015 3.50647 7.5 3.50647V3.50647Z" stroke="#8F93FF" stroke-width="1.5" stroke-linecap="round" stroke-linejoin="round"/>
<path fill-rule="evenodd" clip-rule="evenodd" d="M10.0938 15.9975L9.28182 13.3235C9.28082 13.3225 6.95582 12.5975 6.95582 12.5975C6.68982 12.5145 6.67682 12.1415 6.93782 12.0415L15.7888 8.62747C16.1158 8.50147 16.4528 8.78847 16.3808 9.13147L14.8938 16.1395C14.8068 16.5505 14.3238 16.7335 13.9868 16.4835L11.8748 14.9235L10.6298 16.1355C10.4548 16.3035 10.1648 16.2285 10.0938 15.9975V15.9975Z" stroke="#8F93FF" stroke-width="1.5" stroke-linecap="round" stroke-linejoin="round"/>
</svg>
