<?xml version="1.0" encoding="UTF-8"?>
<svg xmlns="http://www.w3.org/2000/svg" width="38" height="39" viewBox="0 0 38 39" fill="none">
  <path fill-rule="evenodd" clip-rule="evenodd" d="M33.899 6.3105L33.6863 6.10151C33.3886 5.80909 33.0868 5.51275 32.789 5.2125C32.4887 4.91462 32.1923 4.61284 31.8998 4.31503L31.691 4.1025C29.123 1.482 27.5945 0 26 0H14C10.6925 0 8 2.6925 8 6V28.5V33C8 36.3075 10.6925 39 14 39H32C35.3075 39 38 36.3075 38 33V12C38 10.407 36.518 8.877 33.899 6.3105ZM11 28.5V33C11 34.656 12.344 36 14 36H32C33.656 36 35 34.656 35 33V13.5C35 12.0075 33.497 12 32 12H27.5C26.6735 12 26 11.3265 26 10.5L26 5.87563C26.0002 4.56331 26.0004 3.26627 24.9335 2.994L14 3C12.344 3 11 4.344 11 6V28.5Z" fill="black"></path>
  <rect y="17" width="25" height="13" rx="2" fill="black"></rect>
  <path d="M9.45459 21.6694H7.49463V27H6.17627V21.6694H4.24268V20.6016H9.45459V21.6694ZM12.5 22.8076L13.6997 20.6016H15.2158L13.3525 23.7744L15.2642 27H13.7305L12.5 24.7588L11.2695 27H9.73584L11.6475 23.7744L9.78418 20.6016H11.3003L12.5 22.8076ZM20.7485 21.6694H18.7886V27H17.4702V21.6694H15.5366V20.6016H20.7485V21.6694Z" fill="white"></path>
</svg>
