<?xml version="1.0" encoding="UTF-8"?>
<svg xmlns="http://www.w3.org/2000/svg" width="201" height="197" viewBox="0 0 201 197" fill="none">
  <path d="M100.042 0.0391235C115.642 0.0391235 130.485 3.61332 143.804 10.0069C145.893 10.9493 147.996 12.0772 150.078 13.2061L140.945 21.2959L127.254 7.18852L103.662 27.877L89.7692 13.0157L46.3875 51.5762L74.1619 81.8594L63.319 91.2617L90.7214 121.545L79.8776 130.943L119.075 174.018L142.274 152.95L162.452 175.527C158.453 178.537 154.077 181.553 149.326 184.182C134.863 192.268 118.117 196.962 100.234 196.962C45.2418 196.962 0.535786 152.769 0.535786 98.4159C0.341586 44.4297 45.0555 0.0391235 100.042 0.0391235ZM81.7732 92.3926L105.557 71.3252L126.872 94.8359L103.083 115.901L81.7732 92.3926ZM98.7117 133.022L122.302 111.768L143.804 135.276L120.019 156.345L98.7117 133.022ZM64.8494 52.3311L88.6267 31.2637L109.936 54.7744L86.1511 75.8408L64.8494 52.3311ZM108.412 41.042L126.108 25.2432L142.094 42.7364L124.398 58.7218L108.412 41.042ZM140 113.457L157.69 97.6572L173.676 115.333L155.978 131.143L140 113.457ZM155.599 149.01L173.297 133.207L189.269 150.699L171.579 166.683L155.599 149.01ZM162.831 67.751L174.626 57.2168L185.277 68.8828L173.484 79.4131L162.831 67.751ZM147.609 32.9541L159.405 22.2353L170.064 34.083L158.26 44.6162L147.609 32.9541ZM177.86 102.551L189.655 92.0176L200.5 103.68L188.517 114.21L177.86 102.551ZM124.777 76.4053L142.474 60.6055L158.453 78.0948L140.763 93.8975L124.777 76.4053Z" fill="#036CB5"></path>
</svg>
