<?xml version="1.0" encoding="UTF-8"?>
<svg xmlns="http://www.w3.org/2000/svg" width="38" height="39" viewBox="0 0 38 39" fill="none">
  <path fill-rule="evenodd" clip-rule="evenodd" d="M33.899 6.3105L33.6863 6.10151C33.3886 5.80909 33.0868 5.51275 32.789 5.2125C32.4887 4.91462 32.1923 4.61284 31.8998 4.31503L31.691 4.1025C29.123 1.482 27.5945 0 26 0H14C10.6925 0 8 2.6925 8 6V28.5V33C8 36.3075 10.6925 39 14 39H32C35.3075 39 38 36.3075 38 33V12C38 10.407 36.518 8.877 33.899 6.3105ZM11 28.5V33C11 34.656 12.344 36 14 36H32C33.656 36 35 34.656 35 33V13.5C35 12.0075 33.497 12 32 12H27.5C26.6735 12 26 11.3265 26 10.5L26 5.87563C26.0002 4.56331 26.0004 3.26627 24.9335 2.994L14 3C12.344 3 11 4.344 11 6V28.5Z" fill="black"></path>
  <rect y="17" width="25" height="13" rx="2" fill="black"></rect>
  <path d="M7.521 25.9409H10.7466V27H5.87305V26.2266L9.03711 21.6694H5.87744V20.6016H10.6763V21.3574L7.521 25.9409ZM12.9834 27H11.665V20.6016H12.9834V27ZM15.5278 24.7456V27H14.2095V20.6016H16.7056C17.186 20.6016 17.6079 20.6895 17.9712 20.8652C18.3374 21.041 18.6187 21.2915 18.8149 21.6167C19.0112 21.939 19.1094 22.3066 19.1094 22.7197C19.1094 23.3467 18.894 23.8418 18.4634 24.2051C18.0356 24.5654 17.4424 24.7456 16.6836 24.7456H15.5278ZM15.5278 23.6777H16.7056C17.0542 23.6777 17.3193 23.5957 17.501 23.4316C17.6855 23.2676 17.7778 23.0332 17.7778 22.7285C17.7778 22.415 17.6855 22.1616 17.501 21.9683C17.3164 21.7749 17.0615 21.6753 16.7363 21.6694H15.5278V23.6777Z" fill="white"></path>
</svg>
